<?xml version="1.0" encoding="iso-8859-1"?>
<!-- Generator: Adobe Illustrator 19.0.0, SVG Export Plug-In . SVG Version: 6.00 Build 0)  -->
<svg version="1.1" id="Capa_1" xmlns="http://www.w3.org/2000/svg" xmlns:xlink="http://www.w3.org/1999/xlink" x="0px" y="0px"
	 viewBox="0 0 512 512" style="enable-background:new 0 0 512 512;" xml:space="preserve">
<path style="fill:#00B8FA;" d="M120.65,388.605l-40.88,11.316c-7.984,2.208-16.249-2.47-18.458-10.455
	c-2.21-7.984,2.471-16.248,10.454-18.458l48.884-13.532v-84.295l-47.74,13.215c-9.183,2.297-17.982,5.947-26.16,10.851
	c-45.517,27.292-60.345,86.527-33.053,132.044c17.295,28.845,48.955,46.765,82.624,46.766c7.772,0,15.525-0.945,23.05-2.81
	l1.28-0.354L120.65,388.605L120.65,388.605z"/>
<g>
	<path style="fill:#009AD2;" d="M415.733,275.821c-9.536,0-18.96,1.395-28.015,4.146l-86.735,24.012v84.294l110.656-30.633
		c7.982-2.206,16.247,2.47,18.458,10.455c2.21,7.984-2.47,16.248-10.454,18.458l-118.66,32.849v84.294l142.582-39.469l0.392-0.114
		c19.286-5.908,36.608-18.084,48.777-34.285c12.593-16.766,19.249-36.738,19.249-57.756
		C511.983,318.999,468.805,275.821,415.733,275.821z"/>
	<path style="fill:#009AD2;" d="M344.396,53.607l-73.413-20.313l-30,54.865l30,54.865c0-8.271,6.729-15,15-15s15,6.729,15,15
		v116.688h15c57.897,0,105-47.103,105-105C420.983,107.863,389.514,66.293,344.396,53.607z"/>
</g>
<polygon style="fill:#00B8FA;" points="150.65,0 150.65,478.689 270.983,512 270.983,33.295 "/>
<g>
</g>
<g>
</g>
<g>
</g>
<g>
</g>
<g>
</g>
<g>
</g>
<g>
</g>
<g>
</g>
<g>
</g>
<g>
</g>
<g>
</g>
<g>
</g>
<g>
</g>
<g>
</g>
<g>
</g>
</svg>
